<?xml version="1.0" standalone="no"?>
<!DOCTYPE svg PUBLIC "-//W3C//DTD SVG 1.1//EN" "http://www.w3.org/Graphics/SVG/1.1/DTD/svg11.dtd" >
<!--
2013-9-30: Created.
-->
<svg>
<metadata>
Created by iconfont
</metadata>
<defs>

<font id="iconfont" horiz-adv-x="1024" >
  <font-face
    font-family="iconfont"
    font-weight="500"
    font-stretch="normal"
    units-per-em="1024"
    ascent="896"
    descent="-128"
  />
    <missing-glyph />
    
    <glyph glyph-name="x" unicode="x" horiz-adv-x="1001"
d="M281 543q-27 -1 -53 -1h-83q-18 0 -36.5 -6t-32.5 -18.5t-23 -32t-9 -45.5v-76h912v41q0 16 -0.5 30t-0.5 18q0 13 -5 29t-17 29.5t-31.5 22.5t-49.5 9h-133v-97h-438v97zM955 310v-52q0 -23 0.5 -52t0.5 -58t-10.5 -47.5t-26 -30t-33 -16t-31.5 -4.5q-14 -1 -29.5 -0.5
t-29.5 0.5h-32l-45 128h-439l-44 -128h-29h-34q-20 0 -45 1q-25 0 -41 9.5t-25.5 23t-13.5 29.5t-4 30v167h911zM163 247q-12 0 -21 -8.5t-9 -21.5t9 -21.5t21 -8.5q13 0 22 8.5t9 21.5t-9 21.5t-22 8.5zM316 123q-8 -26 -14 -48q-5 -19 -10.5 -37t-7.5 -25t-3 -15t1 -14.5
t9.5 -10.5t21.5 -4h37h67h81h80h64h36q23 0 34 12t2 38q-5 13 -9.5 30.5t-9.5 34.5q-5 19 -11 39h-368zM336 498v228q0 11 2.5 23t10 21.5t20.5 15.5t34 6h188q31 0 51.5 -14.5t20.5 -52.5v-227h-327z" />
    

    
    <glyph glyph-name="gouwuche" unicode="&#58890;" d="M956.796928 509.728512c-5.210112 8.62208-15.937536 18.936832-37.443584 18.936832L320.672768 528.665344l-29.052928 62.746624c-1.723392 4.328448-4.094976 8.539136-7.560192 13.19936-2.072576 2.702336-4.31104 5.20704-7.97696 8.506368-2.386944 2.072576-4.907008 3.979264-7.561216 5.605376l-1.458176 0.82944c-2.686976 1.558528-5.472256 2.902016-8.323072 3.96288l-1.907712 0.631808c-2.801664 0.945152-5.654528 1.757184-8.572928 2.238464l-4.096 0.463872c-1.823744 0.264192-3.631104 0.447488-5.505024 0.447488L121.224192 627.297024c-31.491072 0-57.109504-25.603072-57.109504-57.091072 0-31.507456 25.618432-57.142272 57.109504-57.142272l80.820224 0 32.65024-70.573056c7.97696-23.348224 19.18464-43.478016 19.252224-43.478016l80.67072-181.128192c0.663552-1.456128 1.44384-2.799616 2.57024-4.608l15.056896-32.02048c5.787648-18.902016 20.810752-33.19808 39.232512-38.488064l-0.183296-2.453504 391.950336 0 17.959936 0.316416-0.232448 2.253824c18.238464 5.371904 33.08032 19.634176 38.851584 38.372352l97.984512 217.076736C944.508928 411.082496 976.976896 476.299008 956.796928 509.728512zM908.690432 412.83968l-92.978176-206.431232-2.5856 0.663552-4.160512-15.435776c-2.920448-10.898432-12.802048-18.507776-25.071616-18.507776-0.067584 0-0.115712 0.033792-0.18432 0.033792l-18.52416 0.53248 0.083968-0.864256L424.841216 172.830464l-17.544192 0.2304c-11.308032 0-21.241856 7.663616-24.193024 18.576384l-4.228096 15.420416-2.520064-0.648192-93.50656 207.460352c-0.116736 0.19968-10.612736 19.03616-17.626112 39.845888l-42.417152 91.881472L121.224192 545.597184c-13.565952 0-24.576 11.060224-24.576 24.608768 0 13.546496 11.010048 24.557568 24.576 24.557568l118.561792-0.13312 2.983936-0.297984c1.260544-0.233472 2.454528-0.596992 4.477952-1.227776 1.243136-0.463872 2.42176-1.077248 4.211712-2.072576 1.143808-0.71168 2.188288-1.542144 3.780608-2.85184 1.04448-0.96256 2.006016-2.057216 3.183616-3.549184 1.293312-1.772544 2.286592-3.514368 3.332096-6.084608l38.13888-82.397184 619.457536 0c7.661568 0 9.069568-2.336768 9.585664-3.217408C935.936 481.372928 924.274688 442.521344 908.690432 412.83968zM469.779456 107.496192c-44.02688 0-79.878144-35.852288-79.878144-79.89248 0-44.04224 35.851264-79.874048 79.878144-79.874048 44.058624 0 79.891456 35.831808 79.891456 79.874048C549.670912 71.643904 513.83808 107.496192 469.779456 107.496192zM469.779456-23.42016c-28.123136 0-51.007488 22.884352-51.007488 51.023872 0 28.141568 22.884352 51.040256 51.007488 51.040256 28.156928 0 51.05664-22.897664 51.05664-51.040256C520.836096-0.535808 497.936384-23.42016 469.779456-23.42016zM746.74688 107.496192c-44.0576 0-79.890432-35.852288-79.890432-79.89248 0-44.04224 35.831808-79.874048 79.890432-79.874048 44.04224 0 79.878144 35.831808 79.878144 79.874048C826.624 71.643904 790.788096 107.496192 746.74688 107.496192zM746.74688-23.42016c-28.153856 0-51.03616 22.884352-51.03616 51.023872 0 28.141568 22.882304 51.040256 51.03616 51.040256 28.141568 0 51.040256-22.897664 51.040256-51.040256C797.786112-0.535808 774.888448-23.42016 746.74688-23.42016z"  horiz-adv-x="1024" />

    
    <glyph glyph-name="home" unicode="&#58884;" d="M943.756933 424.796284l-0.028653 0L556.718993 724.181909c-11.011798 7.42204-25.131377 11.809977-40.499389 11.809977-15.252379 0-29.40061-4.386914-40.382733-11.809977 0 0-375.794875-290.874787-382.91197-296.190863l-0.058328-0.115634c-13.799284-11.519358-22.515806-28.893051-22.515806-48.270377l0-18.361183 0-370.288464 0-84.455507c0-34.921347 28.414143-63.305815 63.538105-63.305815l169.405271 0c35.124985 0 63.625086 28.327162 63.625086 63.305815L366.919229 137.161285c0 34.992979 28.471448 63.304791 63.566758 63.304791l160.369477 0c35.124985 0 72.922846-28.311813 72.922846-63.304791l0-230.662427c0-34.979676 28.442796-63.305815 63.566758-63.305815L898.609687-156.806957c35.123962 0 63.59541 28.384467 63.59541 63.305815l0 84.455507L962.205097 361.243853l0 14.43885 0 8.65717C961.187931 400.086509 954.302103 414.293069 943.756933 424.796284z"  horiz-adv-x="1024" />

    
    <glyph glyph-name="dianhua" unicode="&#58898;" d="M514.049171 746.968891c-246.750847 0-446.778556-200.026686-446.778556-446.777533 0-246.74573 200.026686-446.772416 446.778556-446.772416 246.74573 0 446.772416 200.026686 446.772416 446.772416C960.820564 546.942205 760.794901 746.968891 514.049171 746.968891L514.049171 746.968891zM514.049171-107.743518c-225.290069 0-407.941016 182.650947-407.941016 407.935899 0 225.289046 182.65197 407.939993 407.941016 407.939993 225.283929 0 407.935899-182.65197 407.935899-407.939993C921.984047 74.907429 739.3331-107.743518 514.049171-107.743518L514.049171-107.743518zM604.423481 259.459678c-20.439518 0-35.919071-18.398022-54.461379-18.398022-18.393929 0-99.134835 79.574337-99.134835 99.138928 0 19.561521 18.398022 29.200042 18.398022 49.493228 0 14.602579-54.461379 103.954607-76.800153 103.954607-22.339798 0-76.800153-39.859823-76.800153-76.79606 0-106.878193 197.10924-311.722604 320.483128-311.722604 34.017768 0 76.800153 35.918048 76.800153 76.801177C713.196837 197.260058 624.716666 259.459678 604.423481 259.459678"  horiz-adv-x="1024" />

    
    <glyph glyph-name="daifahuo" unicode="&#58900;" d="M959.704137 356.138578c-2.789533 0.143263-5.583159 0.410346-8.372691 0.410346-292.888653 0.01842-585.776284 0.01842-878.663914 0-2.791579 0-5.582135-0.267083-8.372691-0.410346 0 111.809505 0 223.616964 0 335.427492 298.468742 0 596.938508 0 895.409296 0C959.704137 579.755542 959.704137 467.948083 959.704137 356.138578zM119.811248 635.626014c0-3.239787 0-5.564739 0-7.891737 0-69.464071 0.11154-138.929166-0.166799-208.392214-0.029676-7.15905 2.515287-8.438183 8.881274-8.436136 255.637238 0.124843 511.275499 0.13303 766.91376-0.031722 7.135514-0.005117 8.939603 2.073218 8.911974 9.137101-0.274246 69.228711-0.162706 138.460492-0.180102 207.690226-0.002047 2.505054-0.208754 5.010107-0.341784 7.924483C642.443399 635.626014 381.579113 635.626014 119.811248 635.626014zM148.50373-91.56607c0.137123 3.260254 0.396019 6.523577 0.397043 9.783831 0.020466 133.094274 0.017396 266.185478 0.017396 399.277706 0 2.990101 0 5.981225 0 10.025331 10.1645 0 19.672038 0 29.181623 0 5.612834 0 11.273764-0.453325 16.829294 0.113587 6.994298 0.714268 8.529257-2.111081 8.518001-8.703219-0.183172-114.145713-0.137123-228.288356-0.12382-342.435093 0.002047-15.137769-0.512676-12.521175 12.20395-12.527314 197.649546-0.054235 395.299091-0.054235 592.947614 0 12.713556 0.004093 12.199856-2.608407 12.20088 12.529361 0.013303 113.679086 0.00614 227.354078 0.010233 341.033164 0 9.983375 0.014326 9.986445 9.777691 9.989515 14.47262 0.002047 28.939099 0 44.61922 0 0-3.496637 0-6.411013 0-9.326413 0-133.325541-0.004093-266.651083 0.019443-399.97867 0-3.258207 0.25685-6.52153 0.396019-9.781784C633.163035-91.56607 390.833895-91.56607 148.50373-91.56607zM289.628912 299.248893c18.029632 0 35.273365 0 53.620221 0 0-2.969635 0-5.67014 0-8.372691 0-31.798217 0.166799-63.59848-0.135076-95.395674-0.061398-6.445806 1.828648-8.280594 8.283664-8.268314 107.0849 0.184195 214.169801 0.188288 321.256748-0.00614 6.54302-0.01228 8.283664 1.968841 8.225335 8.326643-0.286526 31.562856-0.12996 63.130829-0.12996 94.693686 0 2.76395 0 5.5279 0 8.79634 18.043958 0 35.46063 0 53.723575 0 0.154519-2.321882 0.459464-4.779863 0.460488-7.236821 0.027629-50.269917-0.070608-100.539834 0.143263-150.807704 0.025583-5.976108-1.370207-8.02886-7.737218-8.020674-143.559627 0.178055-287.119253 0.148379-430.67888 0.085958-4.726651 0-7.729032 0.228197-7.698333 6.553253 0.249687 51.439556 0.138146 102.876042 0.163729 154.315598C289.126468 295.497453 289.417087 297.084601 289.628912 299.248893z"  horiz-adv-x="1024" />

    
    <glyph glyph-name="yibi" unicode="&#58944;" d="M526.432199-129.67911c-60.291155 0-118.789477 11.813047-173.868933 35.110659-53.18941 22.497387-100.954273 54.701856-141.966339 95.715969-41.012066 41.013089-73.212442 88.778976-95.708805 141.968385-23.294542 55.078433-35.106566 113.574708-35.106566 173.863816s11.811 118.785384 35.106566 173.862793c22.496363 53.190433 54.697763 100.954273 95.708805 141.967362 41.013089 41.013089 88.776929 73.215512 141.966339 95.712899 55.079456 23.296589 113.576755 35.108612 173.868933 35.108612 60.285015 0 118.779244-11.812023 173.857676-35.108612 53.18941-22.497387 100.952226-54.69981 141.965316-95.711875 41.014112-41.014112 73.218582-88.777953 95.715969-141.966339C961.268772 435.765103 973.082842 377.268828 973.082842 316.980743s-11.81407-118.785384-35.111682-173.86484c-22.497387-53.190433-54.701856-100.95325-95.715969-141.968385-41.013089-41.013089-88.777953-73.216535-141.965316-95.713922C645.212466-117.866063 586.717214-129.67911 526.432199-129.67911zM526.432199 722.699138c-223.714178 0-405.718395-182.004217-405.718395-405.718395 0-223.718271 182.004217-405.726581 405.718395-405.726581s405.719418 182.00831 405.719418 405.726581C932.151617 540.693898 750.1474 722.699138 526.432199 722.699138zM651.708414 461.375387l76.819596 0 0-331.451948-76.819596 0 0 331.451948ZM619.461989 461.375387 532.082896 461.375387 452.48707 318.470677 366.569258 461.375387 280.475438 461.375387 411.573241 260.090035 411.573241 129.92344 488.392838 129.92344 488.392838 262.970642Z"  horiz-adv-x="1024" />

    
    <glyph glyph-name="forwarding" unicode="&#58958;" d="M1128.685385 523.664667l-393.471242 278.75146c-9.051436 6.348292-20.846972 9.542917-32.683465 9.583873l0-0.040957c-24.328294 0-43.987521-19.904968-43.987521-44.519958l0-136.426846C508.969202 615.653468 27.932485 517.398288 0.163827-110.222542c0.532437-10.321094 0.696264-20.765059 1.556355-30.963283-0.368611-6.757859-1.433485-12.696584-1.720182-19.577314 1.064875-17.201824 2.580274-34.280778 4.669066-51.195904 0.819134 6.634989 2.7441 12.901368 3.768019 19.536357 0.901048-5.611071 2.37549-11.017359 3.399408-16.546516 20.068794 104.480602 63.646748 199.909767 123.484521 282.519478 161.615231 249.590273 420.912247 287.680026 523.181186 292.717703l0-133.068395c0-24.614991 19.659227-44.519958 43.987521-44.519958 0.860091 0 1.597312 0.450524 2.49836 0.532437 10.976402 0.409567 21.829934 3.276538 30.185105 9.25622l393.471242 278.75146C1146.788257 490.039197 1146.788257 510.804256 1128.685385 523.664667z"  horiz-adv-x="1147" />

    
    <glyph glyph-name="iconset0291" unicode="&#59070;" d="M192 256l384 0c12.8 0 21.333333 8.533333 21.333333 21.333333 0 12.8-8.533333 21.333333-21.333333 21.333333L192 298.666667c-12.8 0-21.333333-8.533333-21.333333-21.333333C170.666667 264.533333 179.2 256 192 256zM938.666667 725.333333 85.333333 725.333333c-23.466667 0-42.666667-19.2-42.666667-42.666667l0-597.333333c0-23.466667 19.2-42.666667 42.666667-42.666667l853.333333 0c23.466667 0 42.666667 19.2 42.666667 42.666667L981.333333 682.666667C981.333333 706.133333 962.133333 725.333333 938.666667 725.333333zM938.666667 85.333333 85.333333 85.333333 85.333333 426.666667l853.333333 0L938.666667 85.333333zM938.666667 597.333333 85.333333 597.333333l0 85.333333 853.333333 0L938.666667 597.333333zM746.666667 170.666667l85.333333 0c12.8 0 21.333333 8.533333 21.333333 21.333333l0 85.333333c0 12.8-8.533333 21.333333-21.333333 21.333333l-85.333333 0c-12.8 0-21.333333-8.533333-21.333333-21.333333l0-85.333333C725.333333 179.2 733.866667 170.666667 746.666667 170.666667zM192 170.666667l298.666667 0c12.8 0 21.333333 8.533333 21.333333 21.333333 0 12.8-8.533333 21.333333-21.333333 21.333333L192 213.333333c-12.8 0-21.333333-8.533333-21.333333-21.333333C170.666667 179.2 179.2 170.666667 192 170.666667z"  horiz-adv-x="1024" />

    
    <glyph glyph-name="weibiaoti101" unicode="&#58989;" d="M318.534656 414.413824 358.37952 414.393344 358.37952 524.932096 318.534656 524.932096ZM318.503936 353.400832l39.844864 0 0-110.538752-39.844864 0 0 110.538752ZM929.703936 484.00896c2.136064 1.24928 26.174464 11.464704 26.959872 12.028928l4.130816 0L960.794624 650.402816c-0.02048 39.714816-32.319488 72.034304-71.973888 72.034304L137.291776 722.43712c-39.663616 0-71.943168-32.319488-71.973888-72.034304l0-153.014272 3.073024-0.826368c29.800448-7.918592 56.45824-26.456064 71.318528-49.5872 15.616-24.259584 22.45632-45.114368 21.5296-65.686528-0.91648-20.088832-8.41216-41.225216-22.295552-62.825472-14.215168-22.144-39.261184-38.68672-70.5024-46.565376l-3.1232-0.785408 0-153.558016c0.039936-39.714816 32.309248-72.034304 71.953408-72.05376l751.54944 0c39.673856 0 71.973888 32.339968 71.973888 72.09472L960.794624 271.454208l-3.002368 0.845824c-38.68672 10.960896-69.434368 41.991168-82.270208 82.97472-11.706368 37.45792-1.430528 75.942912 28.934144 108.343296C911.872 471.53664 920.354816 478.40768 929.703936 484.00896zM920.838144 117.009408c0-16.684032-13.580288-30.26432-30.26432-30.26432L357.352448 86.745088l0 71.368704-38.847488 0 0-71.368704L135.548928 86.745088c-16.693248 0-30.26432 13.580288-30.26432 30.26432L105.284608 224.807936l2.044928 1.24928c46.967808 28.309504 97.160192 84.748288 97.160192 158.19264 0 73.464832-50.192384 129.902592-97.160192 158.212096l-2.044928 1.24928L105.284608 650.92608c0 16.684032 13.571072 30.26432 30.26432 30.26432l182.956032 0 0-71.691264 40.358912 0 0 71.691264 531.710976 0c16.684032 0 30.26432-13.580288 30.26432-30.26432l0-114.146304-2.015232-1.2288c-61.878272-38.022144-97.381376-93.150208-97.381376-151.30112 0-58.130432 35.503104-113.25952 97.381376-151.30112l2.015232-1.2288L920.839168 117.009408zM661.376 529.345536 609.833984 451.8912c-0.90624-1.773568-3.042304-5.078016-6.26688-9.832448l-12.713984 0c-2.277376 3.72736-4.110336 6.648832-5.500928 8.664064l-53.838848 78.62272-52.589568 0 61.314048-87.286784-57.505792 0 0-44.106752 90.974208 0 0-37.033984-90.974208 0 0-44.106752 90.974208 0 0-88.536064 42.655744 0 0 88.536064 97.079296 0 0 44.106752-97.079296 0 0 37.033984 97.079296 0 0 44.106752-59.319296 0 63.268864 87.286784L661.376 529.345536z"  horiz-adv-x="1024" />

    
    <glyph glyph-name="yanjing" unicode="&#58909;" d="M512 618.0864c-149.7088 0-266.4448-89.2928-409.6-234.0864 123.2896-123.6992 226.7136-234.0864 409.6-234.0864 182.6816 0 317.0304 139.6736 409.6 231.424C826.9824 488.8576 692.6336 618.0864 512 618.0864L512 618.0864zM512 217.088c-90.3168 0-163.84 74.9568-163.84 166.912 0 92.16 73.5232 166.912 163.84 166.912 90.3168 0 163.84-74.9568 163.84-166.912C675.84 291.84 602.3168 217.088 512 217.088L512 217.088zM512 217.088M512 442.5728c0 14.5408 5.3248 27.648 13.9264 37.888-4.5056 0.8192-9.216 1.024-13.9264 1.024-52.6336 0-95.6416-43.6224-95.6416-97.4848s43.008-97.4848 95.6416-97.4848c52.6336 0 95.6416 43.6224 95.6416 97.4848 0 4.3008-0.4096 8.3968-0.8192 12.6976-10.0352-7.7824-22.528-12.6976-36.2496-12.6976C538.2144 384 512 410.2144 512 442.5728L512 442.5728zM512 442.5728"  horiz-adv-x="1024" />

    
    <glyph glyph-name="lipinqia" unicode="&#58960;" d="M113.777778 577.365333l796.444444 0 0-42.666667-796.444444 0 0 42.666667ZM947.484444 776.533333 76.515556 776.533333C34.247111 776.533333 0 742.286222 0 700.017778l0-645.632c0-42.268444 34.247111-76.515556 76.515556-76.515556l870.912 0c42.268444 0 76.515556 34.247111 76.515556 76.515556L1023.943111 340.992 1023.943111 346.510222 1023.943111 700.017778C1024 742.286222 989.752889 776.533333 947.484444 776.533333zM981.333333 340.992l0-263.054222c0-31.744-25.713778-57.457778-57.457778-57.457778L100.124444 20.48c-31.744 0-57.457778 25.713778-57.457778 57.457778L42.666667 676.408889c0 31.744 25.713778 57.457778 57.457778 57.457778l823.751111 0c31.744 0 57.457778-25.713778 57.457778-57.457778l0-329.898667L981.333333 340.992zM884.224 422.058667l-92.216889-156.899556 72.647111 0 0-34.645333-84.650667 0 0-47.786667 84.650667 0 0-35.100444-84.650667 0 0-69.575111-43.576889 0 0 69.575111-87.779556 0 0 35.100444 87.779556 0 0 47.786667-87.779556 0 0 34.645333 74.865778 0-91.306667 156.899556 49.095111 0c42.666667-77.937778 68.608-127.374222 77.767111-148.252444l0.910222 0c3.128889 8.590222 11.605333 25.941333 25.543111 52.053333l52.224 96.199111L884.224 422.058667zM113.777778 203.832889l111.388444 0 0-42.666667-111.388444 0 0 42.666667Z"  horiz-adv-x="1024" />

    
    <glyph glyph-name="icons64x6471" unicode="&#59010;" d="M833.184 404.272l-80 0c-8.848 0-16 7.152-16 16l0 0c0 8.832 7.152 16 16 16l80 0c8.832 0 16-7.168 16-16l0 0C849.184 411.424 842.016 404.272 833.184 404.272zM798.432 254.048l-56.56 56.576c-6.256 6.256-6.256 16.368 0 22.624l0 0c6.24 6.256 16.368 6.256 22.624 0l56.56-56.56c6.256-6.256 6.256-16.384 0-22.64l0 0C814.816 247.792 804.688 247.792 798.432 254.048zM798.432 586.464l-56.56-56.56c-6.256-6.256-6.256-16.368 0-22.624l0 0c6.24-6.256 16.368-6.256 22.624 0l56.56 56.56c6.256 6.256 6.256 16.368 0 22.624l0 0C814.816 592.72 804.688 592.72 798.432 586.464zM700.448 622.112c-8.8 5.952-22.72 7.152-32.592 3.216l-297.536-114.784C364.368 519.456 351.2 528 338.768 528l-79.168 0C241.952 528 240 511.04 240 493.408l0-153.904c0-16.192 16-29.472 32-31.568l0-158.288C272 140.832 262.512 144 271.36 144l54.336 0C334.528 144 352 140.832 352 149.664l0 158.144c16 1.056 17.12 8.272 22.752 18.288l293.104-118.464c3.84-1.552 6.512-2.32 10.544-2.32 6.288 0 17.344 1.856 22.704 5.504C709.936 216.752 720 226.656 720 237.296L720 595.616C720 606.24 709.264 616.144 700.448 622.112zM320 176l-16 0 0 144 16 0L320 176zM352 352l-80 0 0 144 80 0 0-22.128 0-114.832L352 352zM688 237.312 384 359.04l0 114.816 304 121.744L688 237.312z"  horiz-adv-x="1024" />

    
    <glyph glyph-name="fenlei" unicode="&#58908;" d="M114.349 806.122l357.655 0 0-357.656-357.655 0 0 357.656zM925.423 628.741l-169.609 166.677-166.678-169.597 169.616-166.678zM110.088 322.852l357.655 0 0-357.656-357.655 0 0 357.656zM565.672 322.852l357.655 0 0-357.656-357.655 0 0 357.656z"  horiz-adv-x="1024" />

    
    <glyph glyph-name="fangdajing" unicode="&#58891;" d="M947.509543-2.852403 726.787249 217.869891c55.154992 64.569202 88.411712 148.273808 88.411712 239.653043 0 203.735785-165.77196 369.507745-369.507745 369.507745s-369.507745-165.77196-369.507745-369.507745 165.77196-369.610073 369.507745-369.610073c91.379235 0 175.083841 33.359049 239.653043 88.411712l220.722294-220.722294c5.730389-5.730389 13.20036-8.595583 20.772659-8.595583 7.469971 0 15.04227 2.865194 20.772659 8.595583C958.970321-32.834616 958.970321-14.313181 947.509543-2.852403zM134.817628 457.522934c0 171.40002 139.473569 310.873588 310.873588 310.873588S756.564805 628.922954 756.564805 457.522934c0-171.40002-139.473569-310.873588-310.873588-310.873588S134.817628 286.122914 134.817628 457.522934z"  horiz-adv-x="1024" />

    
    <glyph glyph-name="gouwuche1" unicode="&#59020;" d="M243.2 550.4c-25.6 0-44.8 19.2-44.8 38.4C198.4 640 153.6 678.4 108.8 678.4 83.2 678.4 64 697.6 64 723.2S83.2 768 108.8 768c96 0 172.8-76.8 179.2-166.4C288 576 268.8 550.4 243.2 550.4 243.2 550.4 243.2 550.4 243.2 550.4zM384 25.6m-89.6 0a1.4 1.4 0 1 0 179.2 0 1.4 1.4 0 1 0-179.2 0ZM729.6 25.6m-89.6 0a1.4 1.4 0 1 0 179.2 0 1.4 1.4 0 1 0-179.2 0ZM819.2 153.6 320 153.6c-44.8 0-83.2 32-89.6 76.8L192 633.6l678.4 0c51.2 0 96-51.2 83.2-102.4l-57.6-307.2C896 185.6 857.6 153.6 819.2 153.6z"  horiz-adv-x="1024" />

    
    <glyph glyph-name="daifukuan" unicode="&#59489;" d="M537.923414 485.478206M946.207237 757.318474 77.792759 757.318474c-42.952254 0-77.771271-34.819017-77.771271-77.771271l0-591.093383c0-42.952254 34.819017-77.771271 77.771271-77.771271l868.414479 0c42.952254 0 77.771271 34.819017 77.771271 77.771271L1023.978509 679.547203C1023.978509 722.499457 989.159492 757.318474 946.207237 757.318474zM982.617495 115.47729c0-34.474163-27.947516-62.421678-62.421678-62.421678L104.156196 53.055612c-34.474163 0-62.421678 27.947516-62.421678 62.421678L41.734518 413.240975l940.882977 0L982.617495 115.47729zM982.617495 565.194782 41.734518 565.194782l0 88.5078c0 34.474163 27.947516 62.421678 62.421678 62.421678l816.039621 0c34.474163 0 62.421678-27.947516 62.421678-62.421678L982.617495 565.194782zM149.067059 323.79685m-42.97886 0a42 42 0 1 0 85.957721 0 42 42 0 1 0-85.957721 0ZM294.376539 323.79685m-42.97886 0a42 42 0 1 0 85.957721 0 42 42 0 1 0-85.957721 0ZM439.686019 323.79685m-42.97886 0a42 42 0 1 0 85.957721 0 42 42 0 1 0-85.957721 0ZM584.995499 323.79685m-42.97886 0a42 42 0 1 0 85.957721 0 42 42 0 1 0-85.957721 0ZM730.304979 323.79685m-42.97886 0a42 42 0 1 0 85.957721 0 42 42 0 1 0-85.957721 0ZM875.614459 323.79685m-42.97886 0a42 42 0 1 0 85.957721 0 42 42 0 1 0-85.957721 0Z"  horiz-adv-x="1024" />

    
    <glyph glyph-name="wode-copy" unicode="&#58922;" d="M500.081 381.368c-128.048 0-232.215 101.703-232.215 226.707 0 125.003 104.168 226.702 232.215 226.702 128.046 0 232.214-101.7 232.214-226.702 0-125.005-104.169-226.707-232.214-226.707zM109.604-66.775c-9.728 0-17.606 7.692-17.606 17.187 0 226.093 188.415 410.039 419.998 410.039 231.588 0 420.004-183.947 420.004-410.039 0-9.495-7.878-17.187-17.608-17.187z"  horiz-adv-x="1024" />

    
    <glyph glyph-name="shijian-copy" unicode="&#58883;" d="M524.654 864.91c-268.765 0-486.597-217.834-486.597-486.437s217.834-486.437 486.597-486.437 486.597 217.834 486.597 486.437c-0.161 268.603-217.996 486.437-486.597 486.437zM721.077 293.315h-230.974c-1.782 0-2.757 1.458-4.543 1.619-0.645 0-0.973-0.813-1.782-0.813-5.677 0.161-9.897 4.543-14.922 6.974-4.219 2.272-9.084 2.757-12.326 5.84-2.593 2.593-2.757 6.65-4.705 9.897-3.41 5.84-8.271 11.028-8.271 18.004 0 0.813 0.973 1.298 0.973 2.109 0 0.973-0.973 1.619-0.973 2.593v316.127c0 24.979 18.163 45.253 40.387 45.253 22.385 0 40.387-20.275 40.387-45.253v-279.47h196.748c25.789 0 46.713-18.491 46.713-41.362-0.161-22.871-20.924-41.522-46.713-41.522z"  horiz-adv-x="1024" />

    
    <glyph glyph-name="zhaoxiangji" unicode="&#58897;" d="M512 608c-124.8 0-224-99.2-224-224s99.2-224 224-224 224 99.2 224 224-99.2 224-224 224z m0-400c-96 0-176 80-176 176s80 176 176 176 176-80 176-176-80-176-176-176zM768 524.8a1.6 1.6 0 1 1 102.4 0 1.6 1.6 0 1 1-102.4 0zM864 672h-96l-22.4 67.2c-6.4 16-25.6 28.8-41.6 28.8H320c-19.2 0-35.2-12.8-41.6-28.8L256 672h-96c-54.4 0-96-41.6-96-96v-448c0-54.4 44.8-96 96-96h704c54.4 0 96 41.6 96 96V576c0 54.4-41.6 96-96 96z m48-544c0-25.6-22.4-48-48-48H160c-25.6 0-48 22.4-48 48V576c0 25.6 22.4 48 48 48h131.2l9.6 32 22.4 64h377.6l22.4-64 9.6-32H864c25.6 0 48-22.4 48-48v-448z"  horiz-adv-x="1024" />

    
    <glyph glyph-name="aixin1" unicode="&#58971;" d="M717.06112 799.72352c-47.1296-8.20736-86.16448-22.79936-119.0912-45.06112l-33.792-27.35616L511.06816 674.2016C435.3024 732.34944 402.66752 803.61984 261.632 801.33632l-59.5456-9.65632c-50.68288-15.40096-99.3024-44.89728-128.74752-82.0736-17.29024-21.8368-34.19648-48.08192-45.06112-75.63776-64.16896-162.74432 47.01184-264.27392 122.31168-339.56864l131.96288-130.3552 162.53952-160.93184c19.6352-15.86176 34.4064-42.98752 77.24544-35.4048 51.28704 9.07776 105.01632 84.096 138.39872 117.4784l191.50848 189.89568c59.0848 59.07968 125.66016 108.38016 151.27552 201.1648 48.57856 175.99488-114.33984 353.45408-286.45888 323.47648z m216.448-359.20896c-19.74784-33.82784-47.8976-60.43648-75.12576-86.1696-8.20224-7.75168-16.68096-15.75936-24.64768-23.7312l-191.53408-189.93152c-3.19488-3.19488-9.12896-9.48224-16.64-17.42848-72.52992-76.78464-100.24448-101.43232-114.06336-101.43232l-1.46432-0.0256c-16.5632 0-31.73888 18.16576-45.1328 34.19648-3.54304 4.24448-6.89152 8.24832-9.32352 10.67008l-133.1712 131.51232-153.27232 151.71072a1005.14816 1005.14816 0 0 1-18.30912 17.70496c-26.37312 25.09312-53.64224 51.03616-69.18144 86.89152-34.49856 79.61088-8.94976 176.95744 35.6864 225.0752C144.75264 709.12 180.72064 731.29472 218.61376 741.9904l0.60416 0.16896 43.25888 6.656h0.80384c61.61408-0.27136 89.18528-17.14688 118.38464-35.01056 10.42944-6.37952 21.20704-12.97408 34.03776-19.09248l1.5872-0.75776 94.55104-94.54592c17.44384 14.464 33.00864 31.38048 49.36704 49.16736 26.79808 29.12768 54.50752 59.24864 91.65312 78.20288 30.5664 15.5904 62.32576 23.5008 94.40256 23.5008 95.46752 0 184.32-71.82336 206.67904-167.07072 11.83232-50.42688-1.32096-109.952-20.43392-142.6944z"  horiz-adv-x="1024" />

    
    <glyph glyph-name="huobi" unicode="&#58889;" d="M511.294695 896C234.068157 895.488512-6.842727 659.692508 0.318106 382.465971c7.672321-291.548204 213.290528-509.953613 516.091469-510.465101 287.967787-0.511488 509.442125 219.939873 506.373197 513.534029-2.55744 293.082668-217.893921 496.654923-511.488077 510.465101z m2.55744-957.50568C281.636548-75.827347 64.765603 139.509134 65.788579 384.000435c0.511488 238.353444 207.152671 444.483139 444.994628 444.994627 239.887908 1.022976 449.086532-210.733088 448.575043-448.063556 0-235.796004-210.2216-456.758853-445.506115-442.437186zM694.918914 658.158044c-11.764226 0-21.993987-6.137857-28.131844-15.344642L608.988917 555.348941l-88.998925-132.9869-92.067854 138.10178-53.19476 80.815117c-0.511488 1.022976-1.022976 2.045952-2.045952 3.068928l-0.511488 1.022976c-6.137857 7.672321-15.85613 12.787202-26.59738 12.787202-18.413571 0-33.246725-14.833154-33.246725-33.246725 0-6.137857 1.534464-12.275714 4.603392-16.879106 0.511488-0.511488 1.022976-1.534464 1.534465-2.045953l128.894995-194.876957H376.261842c-18.413571 0-33.246725-14.833154-33.246725-33.758213 0-18.413571 14.833154-33.246725 33.246725-33.246725H486.231779v-42.964999H376.261842c-18.413571 0-33.246725-14.833154-33.246725-33.758213 0-18.413571 14.833154-33.246725 33.246725-33.246725H486.231779v-115.596305c0-2.55744 0-5.626369 0.511488-7.672321 0-18.413571 14.833154-33.758213 33.246725-33.758214s33.246725 14.833154 33.246725 33.758214c0.511488 2.55744 0.511488 5.114881 0.511488 7.672321v115.596305h109.458449c18.413571 0 33.246725 14.833154 33.246725 33.246725s-14.833154 33.758213-33.246725 33.758213h-109.458449V343.081389h109.458449c18.413571 0 33.246725 14.833154 33.246725 33.246725s-14.833154 33.758213-33.246725 33.758213h-71.096843l128.894995 194.876957c0.511488 0.511488 1.022976 1.534464 1.534465 2.55744 3.068928 5.114881 4.603393 10.74125 4.603392 16.879107 1.022976 18.925059-13.810178 33.758213-32.223749 33.758213z"  horiz-adv-x="1024" />

    
    <glyph glyph-name="gengduo" unicode="&#58907;" d="M181.07981 491.830675C124.601607 491.830675 78.814886 446.063397 78.814886 389.564728c0-56.478203 45.786721-102.245481 102.264924-102.245481 56.47718 0 102.263901 45.767278 102.2639 102.245481 0.001023 56.498669-45.787744 102.265947-102.2639 102.265947z m326.167966 0c-56.478203 0-102.265947-45.767278-102.265948-102.265947 0-56.478203 45.788768-102.245481 102.265948-102.245481s102.263901 45.767278 102.2639 102.245481c0 56.498669-45.786721 102.265947-102.2639 102.265947z m346.553207 0c-56.478203 0-102.26697-45.767278-102.26697-102.265947 0-56.478203 45.788768-102.245481 102.26697-102.245481 56.479226 0 102.265947 45.767278 102.265947 102.245481-0.001023 56.498669-45.787744 102.265947-102.265947 102.265947z"  horiz-adv-x="1024" />

    
    <glyph glyph-name="crown" unicode="&#58962;" d="M917.035 487.943h-29.767c-3.929 0-7.753-0.424-11.462-1.151-8.615 33.855-22.454 65.5-39.897 94.737 3.316 2.181 6.965 3.641 9.879 6.556l21.046 21.054c23.248 23.248 23.248 60.942 0 84.191l-42.1 42.1c-23.248 23.257-60.942 23.257-84.191 0l-21.054-21.046c-2.907-2.907-4.353-6.548-6.541-9.849-29.23 17.465-60.882 31.319-94.745 39.935 0.711 3.694 1.143 7.488 1.143 11.393v29.767c0 32.879-26.648 59.542-59.534 59.542h-59.534c-32.879 0-59.542-26.663-59.542-59.542v-29.767c0-3.906 0.439-7.699 1.151-11.393-33.87-8.615-65.515-22.469-94.745-39.935-2.181 3.301-3.634 6.942-6.541 9.849l-21.046 21.046c-23.257 23.257-60.95 23.257-84.199 0l-42.1-42.1c-23.257-23.248-23.257-60.942 0-84.191l21.046-21.054c2.914-2.914 6.563-4.376 9.879-6.556-17.442-29.237-26.852-32.265-39.897-66.084-3.717 0.727-7.533 1.151-11.462 1.151h-29.765c-32.886 0-59.534-26.648-59.534-59.534v-59.534c0-32.879 26.648-59.534 59.534-59.534h29.767c3.929 0 2.628 0.424 6.346 1.151-1.623-24.301 22.454-82.896 39.897-112.133-3.316-2.181-6.965-3.641-9.879-6.556l-21.046-21.054c-23.257-23.248-23.257-60.942 0-84.199l42.1-42.092c23.248-23.257 60.942-23.257 84.199 0l21.046 21.046c2.907 2.907 4.36-0.615 6.541 2.686 29.23-17.465 65.991-35.413 99.861-44.028-0.711-3.694-1.151-7.488-1.151-11.393v-29.767c0-32.879 26.663-59.542 59.542-59.542h59.534c32.886 0 59.534 26.663 59.534 59.542v29.767c0 3.906-0.432 7.699-1.143 11.393 33.862 8.615 65.515 22.469 94.745 39.935 2.188-3.301 3.634-6.942 6.541-9.849l21.054-21.046c23.248-23.257 60.942-23.257 84.191 0l42.1 42.092c23.248 23.257 23.248 60.95 0 84.199l-21.046 21.054c-2.914 2.914-6.563 4.376-9.879 6.556 17.442 29.237 31.281 60.882 39.897 94.737 3.709-0.727 7.533-1.151 11.462-1.151h29.767c32.879 0 59.534 26.656 59.534 59.534v59.534c-0.001 32.885-26.657 59.534-59.536 59.534zM530.047 190.264c-115.086 0-208.378 93.291-208.378 208.378s93.291 208.378 208.378 208.378c115.079 0 208.378-93.291 208.378-208.378s-93.299-208.378-208.378-208.378zM530.047 547.484c-82.2 0-148.843-66.643-148.843-148.843s66.643-148.843 148.843-148.843c82.208 0 148.843 66.643 148.843 148.843s-66.635 148.843-148.843 148.843z"  horiz-adv-x="1024" />

    
    <glyph glyph-name="caidan" unicode="&#58975;" d="M1361.870049 319.787707H61.739707C27.772878 319.787707 0 348.609561 0 383.825171c0 35.265561 27.772878 64.062439 61.739707 64.062439h1300.130342c33.966829 0 61.739707-28.796878 61.739707-64.062439 0-35.21561-27.772878-64.037463-61.739707-64.037464z m0 448.112391H61.739707C27.772878 767.900098 0 796.696976 0 831.937561 0 867.203122 27.772878 896 61.739707 896h1300.130342C1396.136585 896 1423.609756 867.203122 1423.609756 831.937561c0-35.240585-27.772878-64.037463-61.739707-64.037463zM61.739707 0.124878h1300.130342c33.966829 0 61.739707-28.522146 61.739707-64.062439 0-35.565268-27.772878-64.037463-61.739707-64.037463H61.739707c-33.966829 0-61.739707 28.472195-61.739707 64.037463 0 35.540293 27.772878 64.062439 61.739707 64.062439z"  horiz-adv-x="1423" />

    
    <glyph glyph-name="xiaoxi" unicode="&#58888;" d="M124.8-44.8c-12.8 0-25.6 9.6-32 22.4s-3.2 28.8 6.4 38.4c22.4 22.4 44.8 57.6 60.8 86.4-83.2 80-131.2 179.2-131.2 288 3.2 230.4 217.6 422.4 483.2 422.4s480-188.8 480-422.4-214.4-422.4-480-422.4c-54.4 0-108.8 9.6-163.2 25.6-57.6-16-156.8-38.4-224-38.4zM512 742.4c-227.2 0-409.6-156.8-409.6-352 0-96 44.8-185.6 128-252.8 12.8-9.6 16-28.8 9.6-44.8-9.6-16-22.4-38.4-35.2-57.6 54.4 9.6 112 22.4 137.6 28.8 6.4 3.2 12.8 0 19.2 0 48-16 99.2-25.6 150.4-25.6 227.2 0 409.6 156.8 409.6 352s-182.4 352-409.6 352zM288 326.4c-32 0-57.6 25.6-57.6 57.6s25.6 57.6 57.6 57.6 57.6-25.6 57.6-57.6-22.4-57.6-57.6-57.6zM512 326.4c-32 0-57.6 25.6-57.6 57.6s25.6 57.6 57.6 57.6 57.6-25.6 57.6-57.6-25.6-57.6-57.6-57.6zM736 326.4c-32 0-57.6 25.6-57.6 57.6s25.6 57.6 57.6 57.6 57.6-25.6 57.6-57.6-25.6-57.6-57.6-57.6z"  horiz-adv-x="1024" />

    
    <glyph glyph-name="daifahuo1" unicode="&#58901;" d="M531.2 752h-406.4c-51.2 0-92.8-38.4-92.8-89.6v-448c0-51.2 41.6-92.8 92.8-92.8h73.6c0 6.4-3.2 12.8-3.2 19.2 0 16 3.2 28.8 9.6 41.6h-80c-16 0-32 12.8-32 32v448c0 16 12.8 32 32 32h409.6c16 0 32-12.8 32-32v-480h-172.8c6.4-12.8 9.6-25.6 9.6-41.6 0-6.4 0-12.8-3.2-19.2h227.2v540.8c-3.2 51.2-44.8 89.6-96 89.6zM297.6 12.8c-73.6 0-131.2 60.8-131.2 131.2s60.8 131.2 131.2 131.2 131.2-60.8 131.2-131.2-57.6-131.2-131.2-131.2zM297.6 214.4c-38.4 0-70.4-32-70.4-70.4s32-70.4 70.4-70.4 70.4 32 70.4 70.4-32 70.4-70.4 70.4zM976 454.4l-108.8 144c-16 22.4-44.8 35.2-73.6 35.2h-227.2v-512h124.8c0 6.4-3.2 12.8-3.2 19.2 0 16 3.2 28.8 9.6 41.6h-70.4v390.4h166.4c9.6 0 19.2-3.2 25.6-12.8l108.8-144c3.2-6.4 6.4-12.8 6.4-19.2v-182.4c0-16-12.8-32-32-32h-19.2c6.4-12.8 9.6-25.6 9.6-41.6 0-6.4 0-12.8-3.2-19.2h12.8c51.2 0 92.8 41.6 92.8 92.8v182.4c0 22.4-6.4 41.6-19.2 57.6zM787.2 12.8c-73.6 0-131.2 60.8-131.2 131.2s60.8 131.2 131.2 131.2 131.2-60.8 131.2-131.2-57.6-131.2-131.2-131.2zM787.2 214.4c-38.4 0-70.4-32-70.4-70.4s32-70.4 70.4-70.4 70.4 32 70.4 70.4c3.2 38.4-32 70.4-70.4 70.4z"  horiz-adv-x="1024" />

    
    <glyph glyph-name="huojian" unicode="&#58925;" d="M760.789 456.113C764.394 740.958 530.029 870.76 512 881.577c-14.423-7.21-252.394-137.014-248.789-425.464-46.873-32.451-97.352-86.536-90.14-180.282 7.21-93.746 100.957-158.648 137.014-155.042 36.056 3.605 25.239 28.845 25.239 28.845l10.817 50.479s54.084-79.324 68.507-79.324h194.704c18.028 0 68.507 79.324 68.507 79.324l10.817-50.48s-10.817-25.239 25.24-28.844c36.056-3.606 129.802 61.296 137.014 155.042 7.21 93.746-43.268 147.831-90.141 180.282zM512 459.718c-7.211 0-93.746 3.606-104.563 104.564C411.042 661.634 504.789 668.845 512 672.45c7.211 0 100.958-10.817 104.563-108.17C605.746 463.325 519.211 459.719 512 459.719z m0 0M457.915-34.254c0-10.816-10.816-21.633-21.633-21.633-10.817 0-21.634 10.817-21.634 21.633V70.31c0 10.817 10.817 21.634 21.634 21.634s21.633-10.817 21.633-21.634v-104.564z m0 0M537.24-88.338c0-10.817-10.817-21.634-21.634-21.634s-21.634 10.817-21.634 21.634V66.704c0 10.817 10.817 21.634 21.634 21.634s21.633-10.817 21.633-21.634v-155.042z m0 0M609.352-9.014c0-10.817-10.817-21.634-21.634-21.634s-21.633 10.817-21.633 21.634v75.718c0 10.817 10.816 21.634 21.633 21.634 10.817 0 21.634-10.817 21.634-21.634v-75.718z m0 0"  horiz-adv-x="1024" />

    
    <glyph glyph-name="suozi" unicode="&#58973;" d="M773.278725-63.013917h-496.375138c-54.829769 0-99.275028 44.445258-99.275027 99.275028V433.360198c0 54.829769 44.445258 99.275028 99.275027 99.275027h49.637514v99.275028c0 109.654422 88.895633 198.550055 198.550055 198.550055s198.550055-88.895633 198.550055-198.550055v-99.275028h49.637514c54.829769 0 99.275028-44.445258 99.275028-99.275027v-397.10011c-0.001023-54.828746-44.446281-99.274004-99.275028-99.274005zM624.366184 631.910253c0 54.829769-44.445258 99.275028-99.275028 99.275027-54.829769 0-99.275028-44.445258-99.275027-99.275027v-99.275028h198.550055v99.275028z m148.912541-248.187569c0 27.414373-22.223141 49.637514-49.637514 49.637514H326.541101c-27.414373 0-49.637514-22.223141-49.637514-49.637514v-297.825083c0-27.414373 22.223141-49.637514 49.637514-49.637513h397.10011c27.414373 0 49.637514 22.223141 49.637514 49.637513V383.722684zM525.091156 85.898625c-54.829769 0-99.275028 44.445258-99.275027 99.275027 0 36.652781 20.088524 68.305689 49.637513 85.50542v63.407122c0 27.414373 22.223141 49.637514 49.637514 49.637513s49.637514-22.223141 49.637514-49.637513v-63.407122c29.54899-17.199731 49.637514-48.853661 49.637514-85.50542 0-54.829769-44.445258-99.275028-99.275028-99.275027z"  horiz-adv-x="1024" />

    
    <glyph glyph-name="fenqigouyonghuguanli" unicode="&#59021;" d="M886.491429 698.514286H104.886857C47.030857 698.514286 0 651.629714 0 593.773714v-584.192c0-57.782857 47.030857-104.886857 104.886857-104.886857H886.491429c57.782857 0 104.886857 47.030857 104.886857 104.886857V593.700571A105.106286 105.106286 0 0 1 886.491429 698.514286z m-781.604572-69.924572H886.491429c19.236571 0 34.889143-15.652571 34.889142-34.889143v-134.436571H69.851429V593.700571c0 19.236571 15.652571 34.889143 35.108571 34.889143z m781.604572-653.970285H104.886857a34.962286 34.962286 0 0 0-34.889143 34.889142V393.508571h851.529143v-384a35.108571 35.108571 0 0 0-35.108571-34.889142zM1087.634286 896H297.837714a100.937143 100.937143 0 0 1-100.717714-100.717714v-17.773715a34.962286 34.962286 0 0 1 69.851429 0v17.773715c0 17.042286 13.824 30.866286 30.866285 30.866285h789.796572c17.042286 0 30.866286-13.897143 30.866285-30.866285v-592.457143a30.866286 30.866286 0 0 0-30.866285-30.793143h-11.483429a34.962286 34.962286 0 0 1 0-69.851429h11.483429a100.937143 100.937143 0 0 1 100.864 100.717715V795.282286A101.083429 101.083429 0 0 1 1087.634286 896zM495.762286 254.317714H185.197714a34.962286 34.962286 0 0 1 0-69.851428H495.908571a34.962286 34.962286 0 0 1 0 69.851428z m-102.765715-126.171428H185.197714a34.962286 34.962286 0 0 1 0-69.851429h208.018286a34.962286 34.962286 0 1 1-0.146286 69.851429z m391.021715 135.826285h-131.657143a34.962286 34.962286 0 0 1-34.889143-34.962285v-131.657143c0-19.236571 15.652571-34.889143 34.962286-34.889143h131.657143a34.962286 34.962286 0 0 1 34.889142 34.962286V228.937143a34.962286 34.962286 0 0 1-34.962285 34.962286z m-35.108572-131.657142h-61.659428v61.732571h61.732571v-61.732571z"  horiz-adv-x="1243" />

    
    <glyph glyph-name="xiaoxi1" unicode="&#59293;" d="M512 490.322581c-23.741935 0-42.322581-19.096774-42.322581-42.322581s19.096774-42.322581 42.322581-42.322581c23.741935 0 42.322581 19.096774 42.322581 42.322581 0 23.225806-18.580645 42.322581-42.322581 42.322581z m297.290323-42.83871c0 23.741935-19.096774 42.322581-42.322581 42.322581-23.741935 0-42.322581-19.096774-42.322581-42.322581s19.096774-42.322581 42.322581-42.322581c23.225806 0 42.322581 19.096774 42.322581 42.322581M512 893.935484C229.677419 893.935484 2.580645 693.677419 2.580645 447.483871s227.096774-445.935484 509.419355-445.935484c32 0 64 4.645161 95.483871 8.258065l222.967742-135.741936v225.548387c117.16129 83.096774 191.483871 208.516129 191.483871 347.870968-0.516129 246.193548-227.612903 446.451613-509.935484 446.451613z m0-851.612903c-259.096774 0-467.096774 182.709677-467.096774 405.677419s208.516129 403.612903 467.096774 403.612903 467.096774-180.129032 467.096774-403.612903c0-137.806452-78.451613-259.096774-199.741935-331.354839l2.064516-157.419355-157.419355 95.483871c-35.612903-8.774194-73.290323-12.387097-112-12.387096zM257.032258 490.322581c-23.741935 0-42.322581-19.096774-42.322581-42.322581s19.096774-42.322581 42.322581-42.322581c23.741935 0 42.322581 19.096774 42.322581 42.322581 0.516129 23.225806-18.580645 42.322581-42.322581 42.322581z"  horiz-adv-x="1024" />

    
    <glyph glyph-name="aixin" unicode="&#58902;" d="M510.698-26.419l-352.141 375.98C91.298 421.897 59.07 495.757 62.731 569.343c4.726 95.264 69.04 153.095 71.775 155.517 50.862 43.375 105.247 65.229 162.052 65.229 97.726 0 176.129-64.515 214.069-103.064 38.056 38.666 116.097 103.064 214.293 103.064 56.833 0 111.189-21.862 161.647-64.926 3.202-2.755 67.416-60.583 72.109-155.832 3.676-73.526-28.588-147.424-95.734-219.66L510.678-26.383l0.02-0.036z"  horiz-adv-x="1024" />

    
    <glyph glyph-name="arrow-right" unicode="&#58899;" d="M329.525 704.453l56.285 58.261 393.996-392.021-393.996-392.021-56.285 58.261 331.786 333.761z"  horiz-adv-x="1024" />

    
    <glyph glyph-name="saoyisao" unicode="&#59025;" d="M1054.94016 341.321143H42.20416A42.422857 42.422857 0 0 0 0.000731 384a42.422857 42.422857 0 0 0 42.203429 42.678857h1012.736A42.422857 42.422857 0 0 0 1097.143589 384a42.422857 42.422857 0 0 0-42.203429-42.678857zM970.533303 810.678857h-253.184V896h295.387428a42.422857 42.422857 0 0 0 42.203429-42.678857v-298.642286h-84.406857v256z m-843.922286-256H42.20416V853.321143A42.422857 42.422857 0 0 0 84.407589 896h295.387428v-85.321143H126.611017v-256z m0-597.357714h253.184V-128H84.407589a42.422857 42.422857 0 0 0-42.203429 42.678857v298.642286h84.406857v-256z m843.922286 256h84.406857v-298.642286A42.422857 42.422857 0 0 0 1012.736731-128h-295.387428v85.321143h253.184v256z"  horiz-adv-x="1097" />

    
    <glyph glyph-name="shuangren" unicode="&#58931;" d="M986.112 8.637935a29.39871 29.39871 0 0 0-27.648 19.769807h-7.795613c-28.027871 157.134452-145.094194 276.546065-310.288516 276.546064v5.483355c-11.776 6.837677-19.736774 19.456-19.736774 34.039742s7.960774 27.169032 19.736774 34.023226V384c98.188387 0 158.026323 79.591226 158.026323 177.796129 0 98.204903-79.57471 177.779613-177.779613 177.779613V741.574194a29.39871 29.39871 0 0 0-19.736775 27.631483 29.39871 29.39871 0 0 0 19.736775 27.648v1.981936c2.642581 0 5.252129-0.313806 7.911225-0.396387 0.677161 0.049548 1.271742 0.396387 1.96542 0.396387 1.139613 0 2.163613-0.528516 3.270193-0.660645 124.795871-6.887226 223.925677-109.914839 223.925678-236.395355 0-93.068387-53.776516-173.35329-131.782194-212.18271 137.843613-38.069677 245.082839-148.876387 278.428903-288.55329 6.771613-5.41729 11.363097-13.427613 11.363097-22.775742a29.613419 29.613419 0 0 0-29.596903-29.629936z m-477.497806 321.23871c146.250323-40.381935 258.328774-162.584774 283.961806-314.285419 3.385806-4.839226 5.84671-10.421677 5.84671-16.81342 0-16.350968-13.278968-29.613419-29.629936-29.613419a29.415226 29.415226 0 0 0-27.648 19.736774h-4.492387C717.064258 155.747097 575.438452 285.233548 403.340387 285.233548c-172.081548 0-313.723871-129.486452-333.295484-296.315871h-4.508903a29.39871 29.39871 0 0 0-27.648-19.736774A29.679484 29.679484 0 0 0 8.258065-1.172645c0 6.35871 2.444387 11.941161 5.863225 16.780387 25.633032 151.750194 137.678452 273.903484 283.928775 314.318452-78.03871 38.812903-131.782194 119.08129-131.782194 212.149677 0 130.923355 106.132645 237.072516 237.056 237.072516s237.056-106.132645 237.056-237.072516c0-93.101419-53.710452-173.402839-131.765677-212.199226z m-105.273807 389.945807c-98.171871 0-177.796129-79.591226-177.796129-177.796129 0-98.204903 79.57471-177.796129 177.796129-177.796129s177.796129 79.591226 177.796129 177.796129c0.033032 98.204903-79.591226 177.796129-177.796129 177.796129z"  horiz-adv-x="1024" />

    
    <glyph glyph-name="guangbo" unicode="&#58910;" d="M435 634.4c-89.3-68.6-123.7-87.8-147.5-87.8H152.8c-8.7 0-12.7-8.7-12.7-23.3v-278.4c0-12.9 9.8-23.3 21.8-23.3h26.3c21.1 0 38.1-17.8 38.1-39.5 0-21.8-17-39.5-38.1-39.5h-26.3c-54.1 0.1-97.8 46-97.9 102.4V523.4c0 26.6 7.2 50.4 21 68.8 16.2 21.6 40.4 33.6 67.7 33.6l130.1-0.4c12.3 4.3 46.6 26.2 112.4 77.1 36.6 28.3 78.3 62.2 93.2 74.8 11.5 9.6 27.3 11.5 40.6 4.7 13.1-6.6 21.4-20.4 21.4-35.5v-724.4c0-15.5-8.7-29.6-22.4-36.1-13.8-6.5-30-3.9-41.3 6.8-7.2 7-50.3 46-83.2 74.1-59.1 50.6-90.2 72.2-99.6 75.9-21.2 4.2-35.1 20.1-34.3 41 0.8 20.9 17.2 37.6 37.6 37.9 24.5 0 57.3-19.5 139-89 9.1-7.8 18.5-15.9 28-24.1V665.1c-12.2-9.8-25.6-20.3-39.2-30.7z m327.8 93.3C884.5 659.9 960 528.5 960 384.8c0-143.6-75.5-275.1-197-342.7-12.1-7-26.9-6.6-38.6 1-11.6 7.5-18.4 20.9-17.9 35.1 0.5 14.2 8.3 27 20.4 33.5 96.8 54 157 158.6 157 273.1 0 114.5-60.1 219.2-157 273.2-18.1 10.5-24.8 34-15.2 53 9.7 19.2 32.5 26.7 51.1 16.7zM683.6 180c-12.2-6.6-27-5.9-38.5 2-11.4 7.8-17.9 21.2-17.1 35.3 0.8 14.1 8.7 26.7 20.9 33.1 47.8 25.4 77.6 76.9 77.6 134.4s-29.8 109-77.7 134.5c-18.4 10-25.7 33.5-16.4 52.8 9.4 19.5 32.2 27.4 51.1 17.6 35.4-18.9 65.2-47.6 86.1-83.1 43.9-74.7 43.9-168.9 0-243.5l-2.3-3.9c-20.7-33.7-49.6-61-83.7-79.2z"  horiz-adv-x="1024" />

    
    <glyph glyph-name="gouwuche2" unicode="&#58880;" d="M347.136 112.63999999999999q19.456 0 36.864-7.168t30.72-19.968 20.48-30.208 7.168-36.864-7.168-36.864-20.48-30.208-30.72-20.48-36.864-7.68q-20.48 0-37.376 7.68t-30.208 20.48-20.48 30.208-7.168 36.864 7.168 36.864 20.48 30.208 30.208 19.968 37.376 7.168zM773.12 110.59199999999998q19.456 0 37.376-7.168t30.72-19.968 20.48-30.208 7.68-36.864-7.68-36.864-20.48-30.208-30.72-20.48-37.376-7.68-36.864 7.68-30.208 20.48-20.48 30.208-7.68 36.864 7.68 36.864 20.48 30.208 30.208 19.968 36.864 7.168zM945.152 692.2239999999999q28.672 0 44.544-7.68t22.528-18.944 6.144-24.064-3.584-22.016-12.8-37.888-22.016-62.976-24.064-68.096-17.92-53.248q-13.312-40.96-33.792-56.832t-50.176-15.872l-34.816 0-66.56 0-87.04 0-95.232 0-253.952 0 15.36-92.16 516.096 0q49.152 0 49.152-41.984 0-20.48-9.728-35.328t-38.4-14.848l-49.152 0-95.232 0-117.76 0-119.808 0-98.304 0-56.32 0q-20.48 0-34.304 9.216t-23.04 24.064-14.848 32.256-8.704 32.768q-1.024 6.144-5.632 29.696t-11.264 58.88-14.848 78.848-16.384 87.552q-19.456 103.424-44.032 230.4l-76.8 0q-15.36 0-25.6 7.68t-16.896 18.432-9.216 23.04-2.56 22.528q0 20.48 13.824 33.792t37.376 13.312l22.528 0 20.48 0 25.6 0 34.816 0q20.48 0 32.768-6.144t19.456-15.36 10.24-19.456 5.12-17.408q2.048-8.192 4.096-23.04t4.096-30.208q3.072-18.432 6.144-38.912l700.416 0z"  horiz-adv-x="1024" />

    


  </font>
</defs>
</svg>
